<svg width="132" height="24" viewBox="0 0 132 24" fill="none" xmlns="http://www.w3.org/2000/svg">
<path d="M40.56 6.04C40.56 5.88 40.64 5.8 40.8 5.8H41.84C42 5.8 42.08 5.88 42.08 6.04V16.76C42.08 16.92 42 17 41.84 17H40.8C40.64 17 40.56 16.92 40.56 16.76V13.16H36.32C34.4 13.16 33.44 12.2267 33.44 10.36V6.04C33.44 5.88 33.52 5.8 33.68 5.8H34.72C34.88 5.8 34.96 5.88 34.96 6.04V10.36C34.96 11.2667 35.4133 11.72 36.32 11.72H40.56V6.04ZM51.4875 8.84C51.6475 8.84 51.7275 8.92 51.7275 9.08V16.76C51.7275 16.92 51.6475 17 51.4875 17H50.6075C50.4475 17 50.3675 16.92 50.3675 16.76V10.92H50.2875L46.4475 16.76C46.3942 16.8453 46.3408 16.9093 46.2875 16.952C46.2342 16.984 46.1275 17 45.9675 17H45.0075C44.8475 17 44.7675 16.92 44.7675 16.76V9.08C44.7675 8.92 44.8475 8.84 45.0075 8.84H45.8875C46.0475 8.84 46.1275 8.92 46.1275 9.08V14.92H46.2075L50.0475 9.08C50.1008 8.99467 50.1542 8.936 50.2075 8.904C50.2608 8.86133 50.3675 8.84 50.5275 8.84H51.4875ZM55.9231 17C55.7631 17 55.6831 16.92 55.6831 16.76V10.12H53.2031C53.0431 10.12 52.9631 10.04 52.9631 9.88V9.08C52.9631 8.92 53.0431 8.84 53.2031 8.84H59.5231C59.6831 8.84 59.7631 8.92 59.7631 9.08V9.88C59.7631 10.04 59.6831 10.12 59.5231 10.12H57.0431V16.76C57.0431 16.92 56.9631 17 56.8031 17H55.9231ZM60.6881 14.52C60.6881 12.9733 61.4881 12.2 63.0881 12.2H66.0481V11.16C66.0481 10.7973 65.9361 10.5093 65.7121 10.296C65.4988 10.072 65.2108 9.96 64.8481 9.96H63.7281C63.3655 9.96 63.0721 10.072 62.8481 10.296C62.6348 10.5093 62.5281 10.7973 62.5281 11.16C62.5281 11.32 62.4481 11.4 62.2881 11.4H61.4081C61.2481 11.4 61.1681 11.32 61.1681 11.16C61.1681 10.36 61.3815 9.74667 61.8081 9.32C62.2455 8.89333 62.8855 8.68 63.7281 8.68H64.8481C65.6908 8.68 66.3255 8.89333 66.7521 9.32C67.1895 9.74667 67.4081 10.36 67.4081 11.16V16.76C67.4081 16.92 67.3281 17 67.1681 17H66.2881C66.1281 17 66.0481 16.92 66.0481 16.76V16.2H65.9681C65.8828 16.3813 65.7601 16.5413 65.6001 16.68C65.4615 16.7973 65.2801 16.904 65.0561 17C64.8321 17.1067 64.5495 17.16 64.2081 17.16H63.0881C61.4881 17.16 60.6881 16.3867 60.6881 14.84V14.52ZM62.0481 14.84C62.0481 15.16 62.1388 15.416 62.3201 15.608C62.5121 15.7893 62.7681 15.88 63.0881 15.88H64.3681C64.8481 15.88 65.2481 15.72 65.5681 15.4C65.8881 15.08 66.0481 14.68 66.0481 14.2V13.48H63.0881C62.7681 13.48 62.5121 13.576 62.3201 13.768C62.1388 13.9493 62.0481 14.2 62.0481 14.52V14.84ZM71.6013 17C71.4413 17 71.3613 16.92 71.3613 16.76V10.12H68.8813C68.7213 10.12 68.6413 10.04 68.6413 9.88V9.08C68.6413 8.92 68.7213 8.84 68.8813 8.84H75.2013C75.3613 8.84 75.4413 8.92 75.4413 9.08V9.88C75.4413 10.04 75.3613 10.12 75.2013 10.12H72.7213V16.76C72.7213 16.92 72.6413 17 72.4813 17H71.6013ZM80.8463 15.72C81.1663 15.72 81.4169 15.6293 81.5983 15.448C81.7903 15.256 81.8863 15 81.8863 14.68V13.88C81.8863 13.56 81.7903 13.3093 81.5983 13.128C81.4169 12.936 81.1663 12.84 80.8463 12.84H78.0463V15.72H80.8463ZM76.9263 17C76.7663 17 76.6863 16.92 76.6863 16.76V9.08C76.6863 8.92 76.7663 8.84 76.9263 8.84H77.8063C77.9663 8.84 78.0463 8.92 78.0463 9.08V11.56H80.8463C82.4463 11.56 83.2463 12.3333 83.2463 13.88V14.68C83.2463 16.2267 82.4463 17 80.8463 17H76.9263ZM93.0862 10.12H90.4462L89.3262 15.72H93.0862V10.12ZM94.4462 15.72H95.2462C95.4062 15.72 95.4862 15.8 95.4862 15.96V18.52C95.4862 18.68 95.4062 18.76 95.2462 18.76H94.3662C94.2062 18.76 94.1262 18.68 94.1262 18.52V17H88.3662V18.52C88.3662 18.68 88.2862 18.76 88.1262 18.76H87.2462C87.0862 18.76 87.0062 18.68 87.0062 18.52V15.96C87.0062 15.8 87.0862 15.72 87.2462 15.72H87.9662L89.3262 9.08C89.3582 8.92 89.4916 8.84 89.7262 8.84H94.2062C94.3662 8.84 94.4462 8.92 94.4462 9.08V15.72ZM96.7194 14.52C96.7194 12.9733 97.5194 12.2 99.1194 12.2H102.079V11.16C102.079 10.7973 101.967 10.5093 101.743 10.296C101.53 10.072 101.242 9.96 100.879 9.96H99.7594C99.3967 9.96 99.1034 10.072 98.8794 10.296C98.666 10.5093 98.5594 10.7973 98.5594 11.16C98.5594 11.32 98.4794 11.4 98.3194 11.4H97.4394C97.2794 11.4 97.1994 11.32 97.1994 11.16C97.1994 10.36 97.4127 9.74667 97.8394 9.32C98.2767 8.89333 98.9167 8.68 99.7594 8.68H100.879C101.722 8.68 102.357 8.89333 102.783 9.32C103.221 9.74667 103.439 10.36 103.439 11.16V16.76C103.439 16.92 103.359 17 103.199 17H102.319C102.159 17 102.079 16.92 102.079 16.76V16.2H101.999C101.914 16.3813 101.791 16.5413 101.631 16.68C101.493 16.7973 101.311 16.904 101.087 17C100.863 17.1067 100.581 17.16 100.239 17.16H99.1194C97.5194 17.16 96.7194 16.3867 96.7194 14.84V14.52ZM98.0794 14.84C98.0794 15.16 98.17 15.416 98.3514 15.608C98.5434 15.7893 98.7994 15.88 99.1194 15.88H100.399C100.879 15.88 101.279 15.72 101.599 15.4C101.919 15.08 102.079 14.68 102.079 14.2V13.48H99.1194C98.7994 13.48 98.5434 13.576 98.3514 13.768C98.17 13.9493 98.0794 14.2 98.0794 14.52V14.84ZM107.472 14.84C107.312 15.64 107.04 16.2267 106.656 16.6C106.272 16.9733 105.718 17.16 104.992 17.16H104.752C104.592 17.16 104.512 17.08 104.512 16.92V16.12C104.512 15.96 104.592 15.88 104.752 15.88H104.992C105.27 15.88 105.504 15.7893 105.696 15.608C105.899 15.4267 106.038 15.1707 106.112 14.84L107.312 9.08C107.344 8.92 107.478 8.84 107.712 8.84H112.192C112.352 8.84 112.432 8.92 112.432 9.08V16.76C112.432 16.92 112.352 17 112.192 17H111.312C111.152 17 111.072 16.92 111.072 16.76V10.12H108.432L107.472 14.84ZM120.316 12.2V11.16C120.316 10.7973 120.204 10.5093 119.98 10.296C119.766 10.072 119.478 9.96 119.116 9.96H117.196C116.833 9.96 116.54 10.072 116.316 10.296C116.102 10.5093 115.996 10.7973 115.996 11.16V12.2H120.316ZM115.996 13.48V14.68C115.996 15.0427 116.102 15.336 116.316 15.56C116.54 15.7733 116.833 15.88 117.196 15.88H119.116C119.478 15.88 119.766 15.7733 119.98 15.56C120.204 15.336 120.316 15.0427 120.316 14.68V14.6C120.316 14.44 120.396 14.36 120.556 14.36H121.436C121.596 14.36 121.676 14.44 121.676 14.6V14.68C121.676 15.48 121.457 16.0933 121.02 16.52C120.593 16.9467 119.958 17.16 119.116 17.16H117.196C116.353 17.16 115.713 16.9467 115.276 16.52C114.849 16.0933 114.636 15.48 114.636 14.68V11.16C114.636 10.36 114.849 9.74667 115.276 9.32C115.713 8.89333 116.353 8.68 117.196 8.68H119.116C119.958 8.68 120.593 8.89333 121.02 9.32C121.457 9.74667 121.676 10.36 121.676 11.16V13.24C121.676 13.4 121.596 13.48 121.436 13.48H115.996ZM129.397 12.2V11.16C129.397 10.7973 129.285 10.5093 129.061 10.296C128.848 10.072 128.56 9.96 128.197 9.96H126.277C125.914 9.96 125.621 10.072 125.397 10.296C125.184 10.5093 125.077 10.7973 125.077 11.16V12.2H129.397ZM125.077 13.48V14.68C125.077 15.0427 125.184 15.336 125.397 15.56C125.621 15.7733 125.914 15.88 126.277 15.88H128.197C128.56 15.88 128.848 15.7733 129.061 15.56C129.285 15.336 129.397 15.0427 129.397 14.68V14.6C129.397 14.44 129.477 14.36 129.637 14.36H130.517C130.677 14.36 130.757 14.44 130.757 14.6V14.68C130.757 15.48 130.538 16.0933 130.101 16.52C129.674 16.9467 129.04 17.16 128.197 17.16H126.277C125.434 17.16 124.794 16.9467 124.357 16.52C123.93 16.0933 123.717 15.48 123.717 14.68V11.16C123.717 10.36 123.93 9.74667 124.357 9.32C124.794 8.89333 125.434 8.68 126.277 8.68H128.197C129.04 8.68 129.674 8.89333 130.101 9.32C130.538 9.74667 130.757 10.36 130.757 11.16V13.24C130.757 13.4 130.677 13.48 130.517 13.48H125.077Z" fill="#1B1C21"/>
<path fill-rule="evenodd" clip-rule="evenodd" d="M14.5001 7.50008L12.0001 10.0001L9.50008 7.50008C9.22393 7.22393 8.77622 7.22393 8.50008 7.50008C8.22393 7.77622 8.22393 8.22393 8.50008 8.50008L11.293 11.293C11.6835 11.6835 12.3167 11.6835 12.7072 11.293L15.5001 8.50008C15.7762 8.22393 15.7762 7.77622 15.5001 7.50008C15.2239 7.22393 14.7762 7.22393 14.5001 7.50008ZM14.5001 13.5001L12.0001 16.0001L9.50008 13.5001C9.22393 13.2239 8.77622 13.2239 8.50008 13.5001C8.22393 13.7762 8.22393 14.2239 8.50008 14.5001L11.293 17.293C11.6835 17.6835 12.3167 17.6835 12.7072 17.293L15.5001 14.5001C15.7762 14.2239 15.7762 13.7762 15.5001 13.5001C15.2239 13.2239 14.7762 13.2239 14.5001 13.5001Z" fill="#41F6D7"/>
</svg>
